<svg xmlns="http://www.w3.org/2000/svg" width="240" height="87" fill="none" viewBox="0 0 240 87"><path fill="#17233C" fill-rule="evenodd" d="m6.02597 85.9725c.33135-.026.66239-.052.96868-.0067.27989-.0195.58491-.009.89411.0017.53861.0187 1.08995.0377 1.54339-.1009.43166-.4994.98485-.4968 1.53835-.4942.0991.0005.1983.0009.2967-.0015.7705.0324 1.4991-.1814 2.2297-.3959.7456-.2188 1.4931-.4383 2.2894-.3972 9.2331-2.3576 18.1222-6.0001 26.882-9.8925 14.2453-6.5295 27.9537-14.2051 40.1511-24.0956 12.8098-9.6426 24.1426-21.2205 33.1526-34.4521.193-.263.39-.5264.588-.7912l.001-.0008c.999-1.3378 2.024-2.7093 2.713-4.2286.282-.2664.409-.6203.537-.9743.14-.38643.279-.773.619-1.04619.115-.50354.373-.9587.631-1.41366.223-.39424.447-.78833.577-1.21362.288-.20227.332-.51548.376-.82709.035-.25043.07-.49983.231-.68979.421-.39567.502-.91604.584-1.4438l.012-.07507c.007-.04163.011-.08686.016-.13294.016-.14707.032-.30267.115-.37665.445-.39475.55-.91607.653-1.4349v-.00006l.001-.00006c.043-.21866.087-.43688.156-.644991.499-1.037032-1.372-1.12626-1.43-.198285.013.456616-.218.781366-.451 1.108706v.00008c-.118.16589-.237.33244-.324.51715-.025.60018-.354 1.04926-.682 1.49751v.00006c-.171.23295-.341.46567-.469.71926-1.634 3.34593-3.802 6.32124-5.98 9.30964v.0002c-.478.6562-.956 1.3131-1.43 1.9746-18.2636 22.4003-43.068 38.7727-69.4589 50.0571-1.6999.7101-3.3829 1.4309-5.0627 2.1505l-.0015.0006-.0025.0011-.0008.0003c-1.912.819-3.8199 1.6362-5.7442 2.4338-.6432.1763-1.2642.4396-1.8874.7038h-.0001v.0001c-.6943.2943-1.3912.5898-2.1246.7674-.2796.1126-.5551.2424-.8317.3727l-.0001.0001h-.0002c-.693.3266-1.3929.6563-2.1801.7257-.1458.0444-.2807.1366-.4177.2302-.1994.1362-.4033.2755-.6519.2755-.7708.1368-1.4919.4613-2.2089.7839l-.0001.0001c-.7791.3506-1.5534.699-2.3817.8022-3.022 1.0906-6.1355 2.4132-9.1595 3.7318-.554.3786-1.222.5721-1.88517.7641-.44112.1278-.88011.2549-1.28198.4355-.34282.3085-.76505.3958-1.19022.4837-.35648.0737-.71502.1478-1.03056.3531-.66038.3513-1.4257.3725-2.18694.3935-.992.0275-1.97706.0547-2.713895.812-1.4116 1.3464-.113326 2.2962 1.173015 2.8236.37683.4302.88292.4469 1.3786.4633.39089.0129.77531.0255 1.08474.2406.46839.4961 1.12328.4447 1.77698.3934zm233.64403-39.9001c.098-.0513.206-.079.316-.0809l.014-3.1131c-.1.0146-.202-.0017-.292-.0467-.091-.045-.165-.1166-.213-.2051-1.529-2.2248-4.666-2.6868-7.221-2.776-1.752.0457-3.506-.0037-5.262-.0531-1.9-.0535-3.802-.1071-5.701-.0401-5.938.0688-11.874.069-17.809.0691-6.373.0002-12.746.0004-19.121.0855-.461.0138-.923.0239-1.384.0341-1.874.0412-3.753.0825-5.614.3625-.203.0297-.428.0615-.495-.1983.019-.4278.467-.6415.893-.8453.216-.1032.427-.2039.574-.3285 10.78-6.1092 21.81-11.911 33.226-16.7551 4.984-2.0434 10.075-3.6986 15.179-5.358v-.0001c2.29-.7446 4.583-1.4901 6.87-2.272 1.964-.8175 4.019-1.5176 6.031-2.203l.331-.1129v-2.7522c-.425-.04292-.826-.17381-1.226-.30427-.562-.18292-1.12-.36499-1.736-.30248-7.953.22406-15.707 2.51225-23.063 5.21685-15.19 6.0993-29.467 14.3479-42.861 23.6594-.427.3304-.873.6403-1.319.9506-.681.4737-1.364.9483-1.985 1.4982-.114.1209-.251.2181-.403.2861-.152.0681-.316.1056-.482.1105-6.018.0278-12.032.2736-18.043.5651-5.107.2772-10.22.2775-15.334.2778-3.85.0002-7.701.0005-11.55.1188-1.034.0178-2.248.3232-2.733 1.3642-.539 1.4058.783 2.6947 1.898 2.6947 4.832-.0592 9.653.176 14.474.4112 4.862.2372 9.725.4745 14.601.4097.997.0288 1.995.0332 2.992.0376 2.022.0088 4.044.0177 6.06.2301.052.0056.106.0082.16.0108.236.0112.482.0229.57.2787.071.2035-.089.3374-.24.4643-.043.0364-.086.0721-.122.1087-.319.3215-.643.6396-.967.9578v.0003.0002c-.601.5903-1.202 1.1808-1.776 1.7939-6.704 6.9519-11.924 15.1883-15.343 24.2107-.075.2108-.118.4325-.161.655-.085.4411-.171.8854-.513 1.2544-.126.3621-.161.7561-.197 1.1534-.055.6168-.111 1.2416-.509 1.7674-.261.736-.26 1.5133-.259 2.2933.001.9349.002 1.8735-.449 2.7491-.523 1.3404 1.815 1.1639 1.702-.0258.053-.2874.048-.5937.043-.9006-.008-.5295-.016-1.0605.269-1.4986.418-.4918.465-1.0688.487-1.6815.057-.6188.303-1.1988.549-1.7776.222-.5228.444-1.0446.525-1.5933.295-.4675.505-.9902.713-1.5073v-.0001-.0002c.15-.3754.3-.7478.48-1.0939.118-.5857.445-1.1023.772-1.62.282-.4461.565-.8931.715-1.386 3.726-7.854 9.627-14.3975 16.076-20.1477.537-.4782 1.006-.917 1.431-1.3155 2.416-2.2651 3.44-3.2252 7.836-2.684 13.768.357 27.536.7694 41.296 1.3206 6.738.2439 13.482.2994 20.226.2439l.154-.0168c2.319-.2538 5.12-.5603 6.675-2.434.064-.0897.148-.1631.245-.2145zm-138.871 14.3205c-.018-.1645-.026-.4504-.035-.8049-.046-1.717-.135-5.0441-1.6296-3.9956-.2812.2168-.5661.4296-.8512.6424-.6562.4899-1.3124.9799-1.9223 1.519-1.3725 1.0673-2.7989 2.0304-4.234 2.9994h-.0001c-.6977.4712-1.3976.9437-2.0942 1.4302-.1054.0643-.2147.1334-.3269.2044-1.0349.6548-2.3238 1.4703-3.226.0911-.0924-.1688-.2014-.3312-.3106-.4938-.3115-.4636-.6244-.9296-.5582-1.5565.0018-.0356-.0034-.0712-.0154-.1047-.012-.0336-.0305-.0644-.0546-.0908-.024-.0264-.053-.0477-.0854-.0628s-.0674-.0237-.1031-.0252c-.1006-.0107-.2022.0084-.292.0549-.0899.0466-.1639.1185-.213.2068-.3505.5037-.7933.9198-1.2359 1.3358-.4287.4029-.8572.8056-1.2016 1.2875-.6346.8883-1.5095 1.4602-2.3846 2.0322-.0369.0241-.0737.0482-.1105.0723-.0531.0347-.1061.0695-.1591.1044-1.2984 1.2254-2.8986 2.0866-4.6384 2.4964-1.3917.2816-2.7834-1.1996-2.5846-2.6034.7881-1.4187 2.0395-2.5552 3.2831-3.6847.6388-.5802 1.2756-1.1585 1.8464-1.7722.4628-.4737 1.0141-.8212 1.5633-1.1673.699-.4405 1.3946-.879 1.9001-1.573.5617-.2222 1.0953-.5003 1.6222-.775 1.4762-.7695 2.8997-1.5116 4.7399-.9183.1427.0207.2721.0951.3616.2079.0894.1129.1322.2555.1195.3988-.0731.5539-.7622.5451-1.3804.5373-.4574-.0058-.876-.0111-.9775.2123.0084.1687.1465.1565.272.1455.022-.002.0436-.0039.064-.0048.2812-.017.563.0236.8279.1194.265.0957.5074.2447.7123.4375.205.1929.3681.4257.4793.6839.1113.2582.1682.5364.1675.8174.0296.1616.0148.3494-.0002.5397-.0284.3585-.0574.7259.2089.9435.9452-.3501 1.7651-1.0433 2.5866-1.7378.6161-.5209 1.2332-1.0427 1.9047-1.4209.5343-.3121.9775-.7249 1.4177-1.1349.5524-.5145 1.1001-1.0245 1.817-1.3258.5686-.2529 1.0351-.6382 1.4986-1.0211.5431-.4486 1.0819-.8937 1.7759-1.1184 4.0039-.7362 4.0799 4.8786 4.1279 8.4169v.0002c.009.6453.016 1.2216.047 1.6776v.0937.0004c-.003.4145-.006.8547.454 1.05 1.229.1676 2.032-1.0177 2.777-2.1162.339-.5008.666-.9836 1.016-1.3121.489-.5907.967-1.1945 1.446-1.7994v-.0002c1.72-2.1704 3.449-4.354 5.712-5.993 1.463-.936 2.857.688 3.286 2.0304.571 2.5499 2.831 4.1838 5.332 4.5923.813.5422 1.721.5884 2.629.6345.403.0206.807.0411 1.202.1051.202.045.403.0918.603.1385.985.2292 1.961.4563 2.992.4563 2.974.0883 5.948.0939 8.921.0994.767.0015 1.535.0029 2.302.0057 1.165 0 1.953.5513 2.203 1.4753.32 2.4019-2.472 2.2236-4.531 2.0921-.502-.0321-.961-.0614-1.32-.0498-.972-.0449-1.946-.0617-2.919-.0784-1.645-.0283-3.29-.0566-4.928-.221-.64-.0503-1.269-.1885-1.871-.4105-.519-.1733-1.064-.1806-1.607-.1879-.797-.0107-1.588-.0214-2.274-.5596-.318-.1711-.691-.1993-1.066-.2278-.494-.0374-.992-.0751-1.372-.4404-.081-.0891-.189-.149-.308-.1705-.616-.0173-1.137-.2891-1.656-.5603-.255-.1336-.511-.2669-.777-.3697-1.146-.7535-2.13-1.7276-2.893-2.8652-.202-.1671-.346-.5467-.491-.927-.273-.7162-.547-1.4348-1.203-.7406-1.35 1.3533-2.577 2.8118-3.804 4.2699-1.485 1.7638-2.969 3.527-4.668 5.1031-1.538 1.5129-4.646 1.0866-5.553-.9102-.393-.9593-.371-2.0621-.351-3.1407v-.0004c.009-.4373.017-.8705-.002-1.2886zm95.9-.0728c.922.015 1.805.0294 2.408.1819 3.525-.0397 16.438-1.739 14.85-6.9222-.414-1.8916-3.537-2.2882-3.181.1527.101.8586-.143 1.1759-.968 1.4535-.522.1731-1.035.3845-1.55.5963-1.013.4165-2.03.8347-3.115.9661-3.642 1.0609-8.529 1.5784-12.165.0694-.285-.0999-.586-.1296-.884-.1591-.548-.0542-1.086-.1075-1.502-.5943-.923-.2043-1.748-.7079-2.513-1.2373-.383-.3293-.705-.6274-.983-.8858-1.54-1.4287-1.775-1.6473-3.954.7589-.138.0818-.369.34-.629.6298-.522.5814-1.158 1.2899-1.375.9564-.357-.5254-.628-1.1499-.902-1.7789-.586-1.3507-1.182-2.7223-2.653-3.1782-2.356-1.2849-4.777.8288-6.493 2.3418-1.01.5971-1.878 1.3811-2.743 2.1629-.652.5889-1.303 1.1766-2.011 1.6818-.554.2202-.987.59-1.421.9608-.09.0767-.18.1534-.271.2289-1.355 1.34-2.8 2.578-4.244 3.8161-1.502 1.2865-3.003 2.5731-4.404 3.9746-.426.3959-.829.8142-1.231 1.2326-.452.4701-.904.9402-1.39 1.3788-.097.0876-.201.1719-.307.2572-.385.3125-.785.637-.913 1.1744-.358.9656.859.9736 1.318.4283 1-.8738 2.042-1.6875 3.085-2.5012 1.117-.8721 2.234-1.7441 3.299-2.6899.776-.3364 1.365-.8895 1.957-1.4444.541-.508 1.084-1.0174 1.773-1.3633 1.167-.7232 2.291-1.6879 3.414-2.652 1.001-.8598 2.002-1.7192 3.033-2.4063.642-.3533 1.368-.9474 2.122-1.5643 2.332-1.9072 4.929-4.0323 6.131.0653.203 1.0667.865 1.8956 1.678 2.5559.597.7624 1.235.3658 1.86-.0234.147-.0915.294-.1827.439-.2582.446-.1082.852-.3398 1.173-.6682.066-.0626.133-.1249.2-.1871.528-.4933 1.052-.9825 1.438-1.6094.593-.6761 1.318.0036 2.07.7078.528.4956 1.07 1.0032 1.588 1.0589.231.079.446.2115.665.3461.329.2032.667.4113 1.081.4471.036.0283.072.0568.108.0852.393.3119.773.6134 1.319.5334.382-.0139.783-.0277 1.072.2756.675.5955 2.247.621 3.721.645z" clip-rule="evenodd"/></svg>
