<svg enable-background="new 0 0 24 24" viewBox="0 0 24 24" xmlns="http://www.w3.org/2000/svg"><path d="m15.9 19.5-11-11c-.3.8-.4 1.7-.4 2.6v4.9c0 .8-.7 1.5-1.5 1.5-.6 0-1 .4-1 1s.4 1 1 1z"/><path d="m9.5 21.2v.3c0 1.4 1.1 2.5 2.5 2.5s2.5-1.1 2.5-2.5c0-.1 0-.2 0-.3s-.1-.2-.2-.2h-4.5c-.2 0-.3.1-.3.2z"/><path d="m23.7 23.7c.4-.4.4-1 0-1.4l-2.8-2.8h.1c.6 0 1-.4 1-1s-.4-1-1-1c-.8 0-1.5-.7-1.5-1.5v-4.9c.1-3.9-2.6-7.4-6.5-8.1v-2c0-.6-.4-1-1-1s-1 .4-1 1v2.1c-1.6.3-3.1 1-4.3 2.3l-5-5c-.4-.4-1-.4-1.4 0-.4.4-.4 1 0 1.4l22 22c.2.2.4.3.7.3.3-.1.5-.2.7-.4z"/></svg>