<svg enable-background="new 0 0 24 24" viewBox="0 0 24 24" xmlns="http://www.w3.org/2000/svg"><path d="m7 16.4c0-5 4-9 9-9 1.1 0 2.2.2 3.2.6-.6-1.8-1.8-3.3-3.3-4.4-.7-.5-1.5-.8-2.3-.9v-1.2c-.1-.8-.8-1.5-1.6-1.5s-1.5.7-1.5 1.5v1.1c-1 .2-2 .6-2.9 1.3-2.2 1.8-3.4 4.4-3.3 7.2v.8c0 2.5-.6 5.1-1.7 7.3-.1.2 0 .5.2.7 0 .1.1.1.2.1h4.7c-.4-1.1-.7-2.3-.7-3.6z"/><path d="m22.1 11.4c-1.6-1.6-3.9-2.4-6.2-2.3-4.1 0-7.4 3.3-7.4 7.4s3.3 7.4 7.4 7.4c.7 0 1.5-.1 2.2-.3.5-.1.8-.7.6-1.2s-.7-.8-1.2-.6c-2.9.9-6-.7-6.9-3.6s.7-6 3.6-6.9c.5-.2 1.1-.2 1.6-.2 1.8-.1 3.5.5 4.8 1.7.9.9 1.4 2.1 1.4 3.4s-.6 2.6-1.5 2.6c-.1 0-.2 0-.3 0v-5c0-.5-.4-.9-.9-.9-.3 0-.6.2-.8.5-.7-.6-1.6-.9-2.5-.9-2.3 0-4.1 1.8-4.1 4.1s1.8 4.1 4.1 4.1c1 0 1.9-.3 2.6-1 .1.2.2.3.3.4.5.4 1.1.6 1.7.6 2 0 3.4-1.9 3.4-4.5 0-1.8-.7-3.5-1.9-4.8zm-6.2 7.4c-1.2 0-2.2-1-2.2-2.2s1-2.2 2.2-2.2 2.2 1 2.2 2.2-1 2.2-2.2 2.2z"/></svg>